G75*
%MOIN*%
%OFA0B0*%
%FSLAX24Y24*%
%IPPOS*%
%LPD*%
%AMOC8*
5,1,8,0,0,1.08239X$1,22.5*
%
%ADD10C,0.0000*%
D10*
X000364Y001150D02*
X000364Y006750D01*
X000366Y006810D01*
X000371Y006871D01*
X000380Y006930D01*
X000393Y006989D01*
X000409Y007048D01*
X000429Y007105D01*
X000452Y007160D01*
X000479Y007215D01*
X000508Y007267D01*
X000541Y007318D01*
X000577Y007367D01*
X000615Y007413D01*
X000657Y007457D01*
X000701Y007499D01*
X000747Y007537D01*
X000796Y007573D01*
X000847Y007606D01*
X000899Y007635D01*
X000954Y007662D01*
X001009Y007685D01*
X001066Y007705D01*
X001125Y007721D01*
X001184Y007734D01*
X001243Y007743D01*
X001304Y007748D01*
X001364Y007750D01*
X002764Y007750D01*
X002824Y007748D01*
X002885Y007743D01*
X002944Y007734D01*
X003003Y007721D01*
X003062Y007705D01*
X003119Y007685D01*
X003174Y007662D01*
X003229Y007635D01*
X003281Y007606D01*
X003332Y007573D01*
X003381Y007537D01*
X003427Y007499D01*
X003471Y007457D01*
X003513Y007413D01*
X003551Y007367D01*
X003587Y007318D01*
X003620Y007267D01*
X003649Y007215D01*
X003676Y007160D01*
X003699Y007105D01*
X003719Y007048D01*
X003735Y006989D01*
X003748Y006930D01*
X003757Y006871D01*
X003762Y006810D01*
X003764Y006750D01*
X003764Y001150D01*
X003762Y001090D01*
X003757Y001029D01*
X003748Y000970D01*
X003735Y000911D01*
X003719Y000852D01*
X003699Y000795D01*
X003676Y000740D01*
X003649Y000685D01*
X003620Y000633D01*
X003587Y000582D01*
X003551Y000533D01*
X003513Y000487D01*
X003471Y000443D01*
X003427Y000401D01*
X003381Y000363D01*
X003332Y000327D01*
X003281Y000294D01*
X003229Y000265D01*
X003174Y000238D01*
X003119Y000215D01*
X003062Y000195D01*
X003003Y000179D01*
X002944Y000166D01*
X002885Y000157D01*
X002824Y000152D01*
X002764Y000150D01*
X001364Y000150D01*
X001304Y000152D01*
X001243Y000157D01*
X001184Y000166D01*
X001125Y000179D01*
X001066Y000195D01*
X001009Y000215D01*
X000954Y000238D01*
X000899Y000265D01*
X000847Y000294D01*
X000796Y000327D01*
X000747Y000363D01*
X000701Y000401D01*
X000657Y000443D01*
X000615Y000487D01*
X000577Y000533D01*
X000541Y000582D01*
X000508Y000633D01*
X000479Y000685D01*
X000452Y000740D01*
X000429Y000795D01*
X000409Y000852D01*
X000393Y000911D01*
X000380Y000970D01*
X000371Y001029D01*
X000366Y001090D01*
X000364Y001150D01*
M02*
