G75*
%MOIN*%
%OFA0B0*%
%FSLAX24Y24*%
%IPPOS*%
%LPD*%
%AMOC8*
5,1,8,0,0,1.08239X$1,22.5*
%
%ADD10R,0.0472X0.0236*%
%ADD11R,0.0600X0.0600*%
%ADD12OC8,0.0600*%
%ADD13C,0.0120*%
%ADD14C,0.0270*%
%ADD15C,0.0100*%
%ADD16C,0.1650*%
D10*
X001355Y000646D03*
X001355Y001354D03*
X002772Y001354D03*
X002772Y000646D03*
D11*
X003064Y004900D03*
D12*
X002064Y004900D03*
X001064Y004900D03*
D13*
X002814Y002354D02*
X002772Y002313D01*
X002772Y001354D01*
X001964Y001000D02*
X001609Y000646D01*
X001355Y000646D01*
D14*
X001964Y001000D03*
X002814Y002354D03*
X002114Y003050D03*
X001664Y003650D03*
D15*
X000524Y001017D02*
X000606Y000764D01*
X000763Y000549D01*
X000978Y000393D01*
X001231Y000310D01*
X001364Y000300D01*
X002764Y000300D01*
X002897Y000310D01*
X003150Y000393D01*
X003365Y000549D01*
X003521Y000764D01*
X003603Y001017D01*
X003614Y001150D01*
X003614Y006750D01*
X003603Y006883D01*
X003521Y007136D01*
X003365Y007351D01*
X003150Y007507D01*
X002897Y007590D01*
X002764Y007600D01*
X001364Y007600D01*
X001231Y007590D01*
X000978Y007507D01*
X000763Y007351D01*
X000606Y007136D01*
X000524Y006883D01*
X000514Y006750D01*
X000514Y001150D01*
X000524Y001017D01*
X000523Y001037D02*
X001679Y001037D01*
X001679Y001057D02*
X001679Y001012D01*
X001581Y000914D01*
X001057Y000914D01*
X000969Y000826D01*
X000969Y000465D01*
X001057Y000378D01*
X001653Y000378D01*
X001741Y000465D01*
X001741Y000481D01*
X001976Y000715D01*
X002020Y000715D01*
X002125Y000758D01*
X002205Y000839D01*
X002249Y000943D01*
X002249Y001057D01*
X002205Y001161D01*
X002125Y001242D01*
X002020Y001285D01*
X001907Y001285D01*
X001802Y001242D01*
X001722Y001161D01*
X001679Y001057D01*
X001649Y001096D02*
X001683Y001116D01*
X001711Y001144D01*
X001731Y001178D01*
X001741Y001216D01*
X001741Y001345D01*
X001364Y001345D01*
X001364Y001086D01*
X001611Y001086D01*
X001649Y001096D01*
X001702Y001135D02*
X001711Y001135D01*
X001741Y001234D02*
X001794Y001234D01*
X001741Y001332D02*
X002386Y001332D01*
X002386Y001234D02*
X002133Y001234D01*
X002216Y001135D02*
X002425Y001135D01*
X002386Y001174D02*
X002474Y001086D01*
X003071Y001086D01*
X003159Y001174D01*
X003159Y001535D01*
X003071Y001622D01*
X002982Y001622D01*
X002982Y002120D01*
X003055Y002193D01*
X003099Y002298D01*
X003099Y002411D01*
X003055Y002516D01*
X002975Y002596D01*
X002870Y002639D01*
X002757Y002639D01*
X002652Y002596D01*
X002572Y002516D01*
X002529Y002411D01*
X002529Y002298D01*
X002562Y002216D01*
X002562Y001622D01*
X002474Y001622D01*
X002386Y001535D01*
X002386Y001174D01*
X002249Y001037D02*
X003605Y001037D01*
X003613Y001135D02*
X003120Y001135D01*
X003159Y001234D02*
X003614Y001234D01*
X003614Y001332D02*
X003159Y001332D01*
X003159Y001431D02*
X003614Y001431D01*
X003614Y001529D02*
X003159Y001529D01*
X002982Y001628D02*
X003614Y001628D01*
X003614Y001726D02*
X002982Y001726D01*
X002982Y001825D02*
X003614Y001825D01*
X003614Y001923D02*
X002982Y001923D01*
X002982Y002022D02*
X003614Y002022D01*
X003614Y002120D02*
X002982Y002120D01*
X003066Y002219D02*
X003614Y002219D01*
X003614Y002317D02*
X003099Y002317D01*
X003097Y002416D02*
X003614Y002416D01*
X003614Y002514D02*
X003056Y002514D01*
X002935Y002613D02*
X003614Y002613D01*
X003614Y002711D02*
X000514Y002711D01*
X000514Y002613D02*
X002692Y002613D01*
X002571Y002514D02*
X000514Y002514D01*
X000514Y002416D02*
X002531Y002416D01*
X002529Y002317D02*
X000514Y002317D01*
X000514Y002219D02*
X002562Y002219D01*
X002562Y002120D02*
X000514Y002120D01*
X000514Y002022D02*
X002562Y002022D01*
X002562Y001923D02*
X000514Y001923D01*
X000514Y001825D02*
X002562Y001825D01*
X002562Y001726D02*
X000514Y001726D01*
X000514Y001628D02*
X002562Y001628D01*
X002386Y001529D02*
X001731Y001529D01*
X001731Y001530D02*
X001711Y001565D01*
X001683Y001592D01*
X001649Y001612D01*
X001611Y001622D01*
X001364Y001622D01*
X001364Y001363D01*
X001741Y001363D01*
X001741Y001492D01*
X001731Y001530D01*
X001741Y001431D02*
X002386Y001431D01*
X002247Y000938D02*
X003578Y000938D01*
X003546Y000840D02*
X003138Y000840D01*
X003129Y000856D02*
X003148Y000822D01*
X003159Y000784D01*
X003159Y000655D01*
X002781Y000655D01*
X002763Y000655D01*
X002763Y000637D01*
X002386Y000637D01*
X002386Y000508D01*
X002396Y000470D01*
X002416Y000435D01*
X002444Y000408D01*
X002478Y000388D01*
X002516Y000378D01*
X002763Y000378D01*
X002763Y000637D01*
X002781Y000637D01*
X002781Y000378D01*
X003028Y000378D01*
X003067Y000388D01*
X003101Y000408D01*
X003129Y000435D01*
X003148Y000470D01*
X003159Y000508D01*
X003159Y000637D01*
X002781Y000637D01*
X002781Y000655D01*
X002781Y000914D01*
X003028Y000914D01*
X003067Y000904D01*
X003101Y000884D01*
X003129Y000856D01*
X003159Y000741D02*
X003504Y000741D01*
X003433Y000643D02*
X002781Y000643D01*
X002763Y000643D02*
X001903Y000643D01*
X001805Y000544D02*
X002386Y000544D01*
X002410Y000446D02*
X001721Y000446D01*
X001605Y000938D02*
X000550Y000938D01*
X000582Y000840D02*
X000982Y000840D01*
X000969Y000741D02*
X000623Y000741D01*
X000695Y000643D02*
X000969Y000643D01*
X000969Y000544D02*
X000770Y000544D01*
X000905Y000446D02*
X000989Y000446D01*
X001118Y000347D02*
X003009Y000347D01*
X003134Y000446D02*
X003222Y000446D01*
X003159Y000544D02*
X003358Y000544D01*
X002781Y000544D02*
X002763Y000544D01*
X002763Y000446D02*
X002781Y000446D01*
X002763Y000655D02*
X002386Y000655D01*
X002386Y000784D01*
X002396Y000822D01*
X002416Y000856D01*
X002444Y000884D01*
X002478Y000904D01*
X002516Y000914D01*
X002763Y000914D01*
X002763Y000655D01*
X002763Y000741D02*
X002781Y000741D01*
X002781Y000840D02*
X002763Y000840D01*
X002407Y000840D02*
X002206Y000840D01*
X002083Y000741D02*
X002386Y000741D01*
X001364Y001135D02*
X001346Y001135D01*
X001346Y001086D02*
X001099Y001086D01*
X001061Y001096D01*
X001027Y001116D01*
X000999Y001144D01*
X000979Y001178D01*
X000969Y001216D01*
X000969Y001345D01*
X001346Y001345D01*
X001364Y001345D01*
X001364Y001363D01*
X001346Y001363D01*
X001346Y001345D01*
X001346Y001086D01*
X001346Y001234D02*
X001364Y001234D01*
X001364Y001332D02*
X001346Y001332D01*
X001346Y001363D02*
X000969Y001363D01*
X000969Y001492D01*
X000979Y001530D01*
X000999Y001565D01*
X001027Y001592D01*
X001061Y001612D01*
X001099Y001622D01*
X001346Y001622D01*
X001346Y001363D01*
X001346Y001431D02*
X001364Y001431D01*
X001364Y001529D02*
X001346Y001529D01*
X000979Y001529D02*
X000514Y001529D01*
X000514Y001431D02*
X000969Y001431D01*
X000969Y001332D02*
X000514Y001332D01*
X000514Y001234D02*
X000969Y001234D01*
X001008Y001135D02*
X000515Y001135D01*
X000514Y002810D02*
X003614Y002810D01*
X003614Y002908D02*
X000514Y002908D01*
X000514Y003007D02*
X003614Y003007D01*
X003614Y003105D02*
X000514Y003105D01*
X000514Y003204D02*
X003614Y003204D01*
X003614Y003302D02*
X000514Y003302D01*
X000514Y003401D02*
X003614Y003401D01*
X003614Y003499D02*
X000514Y003499D01*
X000514Y003598D02*
X003614Y003598D01*
X003614Y003696D02*
X000514Y003696D01*
X000514Y003795D02*
X003614Y003795D01*
X003614Y003893D02*
X000514Y003893D01*
X000514Y003992D02*
X003614Y003992D01*
X003614Y004090D02*
X000514Y004090D01*
X000514Y004189D02*
X003614Y004189D01*
X003614Y004287D02*
X000514Y004287D01*
X000514Y004386D02*
X003614Y004386D01*
X003614Y004484D02*
X003460Y004484D01*
X003426Y004450D02*
X003514Y004538D01*
X003514Y005262D01*
X003426Y005350D01*
X002702Y005350D01*
X002614Y005262D01*
X002614Y004538D01*
X002702Y004450D01*
X003426Y004450D01*
X003514Y004583D02*
X003614Y004583D01*
X003614Y004681D02*
X003514Y004681D01*
X003514Y004780D02*
X003614Y004780D01*
X003614Y004878D02*
X003514Y004878D01*
X003514Y004977D02*
X003614Y004977D01*
X003614Y005075D02*
X003514Y005075D01*
X003514Y005174D02*
X003614Y005174D01*
X003614Y005272D02*
X003504Y005272D01*
X003614Y005371D02*
X000514Y005371D01*
X000514Y005272D02*
X000799Y005272D01*
X000877Y005350D02*
X000614Y005086D01*
X000614Y004950D01*
X001014Y004950D01*
X001014Y005350D01*
X000877Y005350D01*
X001014Y005272D02*
X001114Y005272D01*
X001114Y005350D02*
X001250Y005350D01*
X001514Y005086D01*
X001514Y004950D01*
X001114Y004950D01*
X001114Y004850D01*
X001514Y004850D01*
X001514Y004714D01*
X001250Y004450D01*
X001114Y004450D01*
X001114Y004850D01*
X001014Y004850D01*
X001014Y004450D01*
X000877Y004450D01*
X000614Y004714D01*
X000614Y004850D01*
X001014Y004850D01*
X001014Y004950D01*
X001114Y004950D01*
X001114Y005350D01*
X001114Y005174D02*
X001014Y005174D01*
X001014Y005075D02*
X001114Y005075D01*
X001114Y004977D02*
X001014Y004977D01*
X001014Y004878D02*
X000514Y004878D01*
X000514Y004780D02*
X000614Y004780D01*
X000646Y004681D02*
X000514Y004681D01*
X000514Y004583D02*
X000745Y004583D01*
X000843Y004484D02*
X000514Y004484D01*
X000514Y004977D02*
X000614Y004977D01*
X000614Y005075D02*
X000514Y005075D01*
X000514Y005174D02*
X000701Y005174D01*
X000514Y005469D02*
X003614Y005469D01*
X003614Y005568D02*
X000514Y005568D01*
X000514Y005666D02*
X003614Y005666D01*
X003614Y005765D02*
X000514Y005765D01*
X000514Y005863D02*
X003614Y005863D01*
X003614Y005962D02*
X000514Y005962D01*
X000514Y006060D02*
X003614Y006060D01*
X003614Y006159D02*
X000514Y006159D01*
X000514Y006257D02*
X003614Y006257D01*
X003614Y006356D02*
X000514Y006356D01*
X000514Y006454D02*
X003614Y006454D01*
X003614Y006553D02*
X000514Y006553D01*
X000514Y006651D02*
X003614Y006651D01*
X003614Y006750D02*
X000514Y006750D01*
X000521Y006848D02*
X003606Y006848D01*
X003583Y006947D02*
X000545Y006947D01*
X000577Y007045D02*
X003551Y007045D01*
X003516Y007144D02*
X000612Y007144D01*
X000684Y007242D02*
X003444Y007242D01*
X003372Y007341D02*
X000755Y007341D01*
X000884Y007439D02*
X003244Y007439D01*
X003057Y007538D02*
X001071Y007538D01*
X001877Y005350D02*
X001614Y005086D01*
X001614Y004714D01*
X001877Y004450D01*
X002250Y004450D01*
X002514Y004714D01*
X002514Y005086D01*
X002250Y005350D01*
X001877Y005350D01*
X001799Y005272D02*
X001328Y005272D01*
X001427Y005174D02*
X001701Y005174D01*
X001614Y005075D02*
X001514Y005075D01*
X001514Y004977D02*
X001614Y004977D01*
X001614Y004878D02*
X001114Y004878D01*
X001114Y004780D02*
X001014Y004780D01*
X001014Y004681D02*
X001114Y004681D01*
X001114Y004583D02*
X001014Y004583D01*
X001014Y004484D02*
X001114Y004484D01*
X001284Y004484D02*
X001843Y004484D01*
X001745Y004583D02*
X001383Y004583D01*
X001481Y004681D02*
X001646Y004681D01*
X001614Y004780D02*
X001514Y004780D01*
X002284Y004484D02*
X002668Y004484D01*
X002614Y004583D02*
X002383Y004583D01*
X002481Y004681D02*
X002614Y004681D01*
X002614Y004780D02*
X002514Y004780D01*
X002514Y004878D02*
X002614Y004878D01*
X002614Y004977D02*
X002514Y004977D01*
X002514Y005075D02*
X002614Y005075D01*
X002614Y005174D02*
X002427Y005174D01*
X002328Y005272D02*
X002624Y005272D01*
D16*
X002064Y006650D03*
M02*
