G75*
%MOIN*%
%OFA0B0*%
%FSLAX24Y24*%
%IPPOS*%
%LPD*%
%AMOC8*
5,1,8,0,0,1.08239X$1,22.5*
%
%ADD10C,0.0080*%
D10*
X001107Y001840D02*
X001054Y001893D01*
X001107Y001840D02*
X001214Y001840D01*
X001267Y001893D01*
X001267Y001947D01*
X001214Y002000D01*
X001107Y002000D01*
X001054Y002054D01*
X001054Y002107D01*
X001107Y002160D01*
X001214Y002160D01*
X001267Y002107D01*
X001222Y002340D02*
X001222Y002660D01*
X001382Y002660D01*
X001436Y002607D01*
X001436Y002500D01*
X001382Y002447D01*
X001222Y002447D01*
X001329Y002447D02*
X001436Y002340D01*
X001590Y002340D02*
X001590Y002660D01*
X001804Y002660D01*
X001697Y002500D02*
X001590Y002500D01*
X001590Y002340D02*
X001804Y002340D01*
X001790Y002160D02*
X001790Y001840D01*
X001790Y002000D02*
X001844Y002054D01*
X001951Y002054D01*
X002004Y002000D01*
X002004Y001840D01*
X002159Y001840D02*
X002159Y002054D01*
X002212Y002054D01*
X002265Y002000D01*
X002319Y002054D01*
X002372Y002000D01*
X002372Y001840D01*
X002265Y001840D02*
X002265Y002000D01*
X002327Y002340D02*
X002541Y002340D01*
X002580Y002214D02*
X002580Y002160D01*
X002580Y002054D02*
X002527Y002054D01*
X002580Y002054D02*
X002580Y001840D01*
X002527Y001840D02*
X002634Y001840D01*
X002773Y002054D02*
X002879Y002054D01*
X002826Y002107D02*
X002826Y001893D01*
X002879Y001840D01*
X003018Y002054D02*
X003125Y002054D01*
X003071Y002107D02*
X003071Y001893D01*
X003125Y001840D01*
X003117Y002340D02*
X003064Y002393D01*
X003117Y002340D02*
X003224Y002340D01*
X003277Y002393D01*
X003277Y002447D01*
X003224Y002500D01*
X003170Y002500D01*
X003224Y002500D02*
X003277Y002554D01*
X003277Y002607D01*
X003224Y002660D01*
X003117Y002660D01*
X003064Y002607D01*
X002909Y002340D02*
X002695Y002340D01*
X002802Y002340D02*
X002802Y002660D01*
X002695Y002554D01*
X002853Y002959D02*
X003134Y002959D01*
X003274Y003099D01*
X003134Y003239D01*
X002853Y003239D01*
X002923Y003419D02*
X003204Y003419D01*
X003274Y003489D01*
X003274Y003629D01*
X003204Y003699D01*
X003204Y003880D02*
X003274Y003950D01*
X003274Y004090D01*
X003204Y004160D01*
X003314Y004400D02*
X003564Y004650D01*
X003564Y005150D01*
X003314Y005400D01*
X002814Y005400D01*
X002564Y005150D01*
X002314Y005400D01*
X001814Y005400D01*
X001564Y005150D01*
X001314Y005400D01*
X000814Y005400D01*
X000564Y005150D01*
X000564Y004650D01*
X000814Y004400D01*
X001314Y004400D01*
X001564Y004650D01*
X001564Y005150D01*
X001564Y004650D02*
X001814Y004400D01*
X002314Y004400D01*
X002564Y004650D01*
X002564Y005150D01*
X002564Y004650D02*
X002814Y004400D01*
X003314Y004400D01*
X003204Y003880D02*
X002923Y003880D01*
X002853Y003950D01*
X002853Y004090D01*
X002923Y004160D01*
X002923Y003699D02*
X002853Y003629D01*
X002853Y003489D01*
X002923Y003419D01*
X002434Y002660D02*
X002434Y002340D01*
X002327Y002554D02*
X002434Y002660D01*
X002254Y003112D02*
X002324Y003182D01*
X002324Y003322D01*
X002254Y003393D01*
X002184Y003393D01*
X002114Y003322D01*
X002114Y003182D01*
X002044Y003112D01*
X001973Y003112D01*
X001903Y003182D01*
X001903Y003322D01*
X001973Y003393D01*
X001903Y003573D02*
X001903Y003713D01*
X001903Y003643D02*
X002324Y003643D01*
X002324Y003573D02*
X002324Y003713D01*
X002254Y003880D02*
X002324Y003950D01*
X002324Y004090D01*
X002254Y004160D01*
X002114Y004160D01*
X002114Y004020D01*
X002254Y003880D02*
X001973Y003880D01*
X001903Y003950D01*
X001903Y004090D01*
X001973Y004160D01*
X001324Y004090D02*
X001324Y003880D01*
X000903Y003880D01*
X000903Y004090D01*
X000973Y004160D01*
X001254Y004160D01*
X001324Y004090D01*
X001324Y003699D02*
X000903Y003699D01*
X000903Y003419D02*
X001324Y003699D01*
X001324Y003419D02*
X000903Y003419D01*
X000973Y003239D02*
X000903Y003169D01*
X000903Y003029D01*
X000973Y002959D01*
X001254Y002959D01*
X001324Y003029D01*
X001324Y003169D01*
X001254Y003239D01*
X001114Y003239D01*
X001114Y003099D01*
X001014Y002660D02*
X000907Y002660D01*
X000854Y002607D01*
X000854Y002393D01*
X000907Y002340D01*
X001014Y002340D01*
X001067Y002393D01*
X001067Y002607D01*
X001014Y002660D01*
X000961Y002447D02*
X001067Y002340D01*
X001422Y002000D02*
X001422Y001893D01*
X001475Y001840D01*
X001636Y001840D01*
X001636Y002054D02*
X001475Y002054D01*
X001422Y002000D01*
X001513Y001669D02*
X001513Y001641D01*
X001513Y001669D02*
X002497Y001669D01*
X002603Y001561D01*
X002172Y002340D02*
X001959Y002340D01*
X002065Y002340D02*
X002065Y002660D01*
X001959Y002554D01*
X001513Y000349D02*
X001513Y000331D01*
X002626Y000331D01*
X002626Y000359D01*
M02*
